<?xml version="1.0" encoding="UTF-8"?>
<svg width="80px" height="80px" viewBox="0 0 80 80" version="1.1" xmlns="http://www.w3.org/2000/svg" xmlns:xlink="http://www.w3.org/1999/xlink">
    <!-- Generator: Sketch 52.5 (67469) - http://www.bohemiancoding.com/sketch -->
    <title>ic_pass_permit</title>
    <desc>Created with Sketch.</desc>
    <defs>
        <polygon id="path-1" points="11 0 48.81 0 57 20 60 20 60 56 46 56 46 48 14 48 14 56 -4.54542654e-13 56 -4.54542654e-13 20 3 20"></polygon>
    </defs>
    <g id="深圳公安二期" stroke="none" stroke-width="1" fill="none" fill-rule="evenodd">
        <g id="深圳公安_政务服务分类图标汇总" transform="translate(-120.000000, -2160.000000)">
            <g id="法人业务" transform="translate(120.000000, 1700.000000)">
                <g id="交管业务">
                    <g id="通行许可" transform="translate(0.000000, 460.000000)">
                        <g id="Group-15">
                            <g id="ic_pass_permit">
                                <rect id="Rectangle" x="0" y="0" width="80" height="80"></rect>
                                <g id="车" stroke-width="1" fill-rule="evenodd" transform="translate(2.000000, 12.000000)">
                                    <polygon id="Rectangle" fill="#5772B8" points="20 1 56 1 64 21 12 21"></polygon>
                                    <g id="Group" transform="translate(8.000000, 0.000000)">
                                        <mask id="mask-2" fill="white">
                                            <use xlink:href="#path-1"></use>
                                        </mask>
                                        <use id="Rectangle" fill="#0D349A" xlink:href="#path-1"></use>
                                        <rect id="Rectangle" fill="#5772B8" mask="url(#mask-2)" x="1" y="0" width="58" height="20"></rect>
                                    </g>
                                    <circle id="Oval-2" fill="#5772B8" fill-rule="nonzero" cx="18" cy="36" r="4"></circle>
                                    <polygon id="Rectangle-10" fill="#5772B8" fill-rule="nonzero" points="28 32 49 32 49 40 39 40 28 40"></polygon>
                                    <polygon id="Path-2" fill="#0D349A" fill-rule="nonzero" points="11 20 32 20 32 28 8 28 0 21 5 15"></polygon>
                                </g>
                                <g id="通行" stroke-width="1" fill-rule="evenodd" transform="translate(44.000000, 20.000000)">
                                    <circle id="Oval-22" fill="#EBC983" cx="18" cy="18" r="18"></circle>
                                    <g id="Group-20" transform="translate(11.000000, 8.000000)" fill="#0D349A">
                                        <polygon id="Stroke-3" fill-rule="nonzero" points="5 6 9 6 9 20 5 20"></polygon>
                                        <polygon id="Fill-5" points="7 10 0 10 7 0 14 10"></polygon>
                                    </g>
                                </g>
                            </g>
                        </g>
                    </g>
                </g>
            </g>
        </g>
    </g>
</svg>